<?xml version="1.0" encoding="utf-8"?>
<!-- Generator: Adobe Illustrator 22.0.1, SVG Export Plug-In . SVG Version: 6.00 Build 0)  -->
<svg version="1.1" id="레이어_1" xmlns="http://www.w3.org/2000/svg" xmlns:xlink="http://www.w3.org/1999/xlink" x="0px"
	 y="0px" viewBox="0 0 100 100" style="enable-background:new 0 0 100 100;" xml:space="preserve">
<style type="text/css">
	.st0{fill:#FFA100;}
</style>
<g>
	<g>
		<path class="st0" d="M57.8,96.8C40.6,96.8,4.7,96,4.7,72.1c0-16.7,17.2-26,31.5-36.3c9.7-7,17.7-16.1,17.8-22.3
			c0.1-2.7-1.6-5.3-5-8c-0.6-0.5-0.7-1.3-0.2-1.9s1.3-0.7,1.9-0.2c4.1,3.3,6.1,6.6,6,10.1c-0.1,6.3-8.1,16.6-18.6,24.6
			C23.7,49.1,13.4,59.4,16.6,74.3c3.3,15.3,18.1,19.4,41.2,17.4c11.7-1,31.5-2.5,32-26.8c0.3-16.1-10-35.4-23.2-46
			c-0.6-0.5-0.7-1.3-0.2-1.9c0.5-0.6,1.3-0.7,1.9-0.2c8,6.4,16.4,15.8,22,25.9c3.9,7.1,7.1,16.6,7.1,23.6
			C97.3,85.9,83.9,96.8,57.8,96.8z"/>
	</g>
	<g>
		<g>
			<polygon class="st0" points="50.6,84.8 43.5,73.8 37.6,81.3 30.6,71.4 33,69 37.7,75.6 43.7,68.1 50.9,79.1 59.5,68.9 61.8,71.5 
							"/>
		</g>
	</g>
	<g>
		<path class="st0" d="M80.5,51c-0.9,0-1.6-0.6-1.9-1.4c-2.3-7.6-7.7-13.7-7.7-13.8C70.1,35,70.2,33.7,71,33
			c0.8-0.7,2.1-0.6,2.8,0.2c0.2,0.3,5.9,6.8,8.5,15.2c0.3,1.1-0.3,2.2-1.3,2.5C80.9,51,80.7,51,80.5,51z"/>
	</g>
	<g>
		<path class="st0" d="M83.3,63.9c-1,0-1.9-0.8-2-1.8c-0.3-2.7-0.7-4.5-0.7-4.5c-0.3-1.1,0.4-2.2,1.5-2.4c1.1-0.3,2.2,0.4,2.4,1.5
			c0,0.1,0.5,2,0.8,5c0.1,1.1-0.7,2.1-1.8,2.2C83.4,63.9,83.4,63.9,83.3,63.9z"/>
	</g>
</g>
</svg>
