<?xml version="1.0" encoding="utf-8"?>
<!-- Generator: Adobe Illustrator 22.0.1, SVG Export Plug-In . SVG Version: 6.00 Build 0)  -->
<svg version="1.1" xmlns="http://www.w3.org/2000/svg" xmlns:xlink="http://www.w3.org/1999/xlink" x="0px" y="0px"
	 viewBox="0 0 500 333.3" style="enable-background:new 0 0 500 333.3;" xml:space="preserve">
<style type="text/css">
	.st0{fill:#FFA100;}
	.st1{fill:#FFFFFF;}
</style>
<g id="레이어_1">
	<g>
		<rect x="-710" y="-373.3" class="st0" width="1920" height="1080"/>
	</g>
</g>
<g id="레이어_2">
	<g>
		<g>
			<path class="st1" d="M250,224.7c-32,0-58-26-58-58s26-58,58-58s58,26,58,58S282,224.7,250,224.7z M250,118.8
				c-26.4,0-47.8,21.5-47.8,47.8c0,26.4,21.5,47.8,47.8,47.8c26.4,0,47.8-21.5,47.8-47.8C297.8,140.3,276.4,118.8,250,118.8z"/>
		</g>
		<g>
			<path class="st1" d="M251.2,181.1h-2.5c-1.8,0-3.3-1.4-3.4-3.2l-2.6-40.4c-0.1-2,1.4-3.7,3.4-3.7h7.7c2,0,3.6,1.7,3.4,3.7
				l-2.6,40.4C254.6,179.7,253.1,181.1,251.2,181.1z"/>
			<circle class="st1" cx="250" cy="194.1" r="5.4"/>
		</g>
	</g>
</g>
</svg>
